<svg version="1.1" xmlns="http://www.w3.org/2000/svg" viewBox="0 0 880 359.9286119416365" width="880" height="359.9286119416365" filter="invert(93%) hue-rotate(180deg)">
  <!-- svg-source:excalidraw -->
  
  <defs>
    <style class="style-fonts">
      @font-face {
        font-family: "Virgil";
        src: url("https://excalidraw.com/Virgil.woff2");
      }
      @font-face {
        font-family: "Cascadia";
        src: url("https://excalidraw.com/Cascadia.woff2");
      }
      @font-face {
        font-family: "Assistant";
        src: url("https://excalidraw.com/Assistant-Regular.woff2");
      }
    </style>
    
  </defs>
  <g stroke-linecap="round" transform="translate(10 94) rotate(0 143 101.50000000000003)"><path d="M32 0 C112.36 -0.88, 191.91 -2.75, 254 0 M32 0 C93.84 -0.14, 156.59 -1.2, 254 0 M254 0 C273.72 1.55, 287.49 12.63, 286 32 M254 0 C274.31 1.42, 286.81 10.79, 286 32 M286 32 C283.61 63.52, 284.34 92.91, 286 171 M286 32 C285.52 59.98, 286.56 88.15, 286 171 M286 171 C286.76 192.86, 277.31 203.88, 254 203 M286 171 C286.33 194.26, 275.91 202.4, 254 203 M254 203 C201.26 202.61, 150.44 202.55, 32 203 M254 203 C188.71 203.04, 121.22 203, 32 203 M32 203 C10.6 202.59, -0.73 191.19, 0 171 M32 203 C12.45 205.2, 2.11 192.67, 0 171 M0 171 C-1.49 138.04, 2.14 102.66, 0 32 M0 171 C0.6 120.32, 0.77 68.17, 0 32 M0 32 C-1.04 11.42, 9.33 1.32, 32 0 M0 32 C-2.18 12.04, 12.28 2.27, 32 0" stroke="#1e1e1e" stroke-width="2" fill="none"></path></g><g transform="translate(125.28333282470703 183) rotate(0 27.71666717529297 12.5)"><text x="27.71666717529297" y="0" font-family="Virgil, Segoe UI Emoji" font-size="20px" fill="#1e1e1e" text-anchor="middle" style="white-space: pre;" direction="ltr" dominant-baseline="text-before-edge">DOM </text></g><g stroke-linecap="round" transform="translate(536 78) rotate(0 167 101.5)"><path d="M32 0 C100.58 -2.71, 170.44 -3.13, 302 0 M302 0 C322.35 -0.3, 333.67 10.3, 334 32 M334 32 C333.45 68.46, 333.01 104, 334 171 M334 171 C333.29 193.5, 324.44 204.73, 302 203 M302 203 C196.43 200.37, 89.77 202.16, 32 203 M32 203 C12.4 202, 0.78 192.77, 0 171 M0 171 C0.35 136.8, -0.67 99.73, 0 32 M0 32 C1.44 10.6, 11.96 -1.73, 32 0" stroke="#2f9e44" stroke-width="2.5" fill="none" stroke-dasharray="8 10"></path></g><g transform="translate(636.3833312988281 83) rotate(0 66.61666870117188 12.5)"><text x="66.61666870117188" y="0" font-family="Virgil, Segoe UI Emoji" font-size="20px" fill="#2f9e44" text-anchor="middle" style="white-space: pre;" direction="ltr" dominant-baseline="text-before-edge">App Template</text></g><g stroke-linecap="round" transform="translate(554 129) rotate(0 67.5 30)"><path d="M15 0 C42.13 -2.72, 69.88 -0.57, 120 0 M120 0 C130.4 1.72, 135.1 4.09, 135 15 M135 15 C136.72 22.74, 134.01 32.05, 135 45 M135 45 C134.95 53.29, 128.35 61.05, 120 60 M120 60 C91.66 61.32, 63.24 58.36, 15 60 M15 60 C5.38 61.8, 0.77 53.43, 0 45 M0 45 C0.19 39.43, -0.43 30.93, 0 15 M0 15 C0.14 4.64, 5.67 0.32, 15 0" stroke="#f08c00" stroke-width="2.5" fill="none" stroke-dasharray="8 10"></path></g><g transform="translate(572.2583351135254 134) rotate(0 49.24166488647461 25)"><text x="49.24166488647461" y="0" font-family="Virgil, Segoe UI Emoji" font-size="20px" fill="#f08c00" text-anchor="middle" style="white-space: pre;" direction="ltr" dominant-baseline="text-before-edge">Component</text><text x="49.24166488647461" y="25" font-family="Virgil, Segoe UI Emoji" font-size="20px" fill="#f08c00" text-anchor="middle" style="white-space: pre;" direction="ltr" dominant-baseline="text-before-edge">Template</text></g><g stroke-linecap="round" transform="translate(633.5 205) rotate(0 67.5 30)"><path d="M15 0 C39.24 0.34, 64.3 1.61, 120 0 M120 0 C131.77 -1.86, 133.54 6.25, 135 15 M135 15 C134.54 20.83, 135.18 30.39, 135 45 M135 45 C133.05 55.24, 131.01 60.23, 120 60 M120 60 C83.52 62.16, 48.14 59.16, 15 60 M15 60 C3.15 60.47, 1.42 55.11, 0 45 M0 45 C-0.1 34.06, 1.4 22.05, 0 15 M0 15 C-0.22 5.82, 5.62 -0.87, 15 0" stroke="#f08c00" stroke-width="2.5" fill="none" stroke-dasharray="8 10"></path></g><g transform="translate(651.7583351135254 210) rotate(0 49.24166488647461 25)"><text x="49.24166488647461" y="0" font-family="Virgil, Segoe UI Emoji" font-size="20px" fill="#f08c00" text-anchor="middle" style="white-space: pre;" direction="ltr" dominant-baseline="text-before-edge">Component</text><text x="49.24166488647461" y="25" font-family="Virgil, Segoe UI Emoji" font-size="20px" fill="#f08c00" text-anchor="middle" style="white-space: pre;" direction="ltr" dominant-baseline="text-before-edge">Template</text></g><g stroke-linecap="round" transform="translate(713.5 135) rotate(0 67.5 30)"><path d="M15 0 C57.05 -0.32, 96.65 -0.86, 120 0 M120 0 C129.54 -1.54, 135.17 5.65, 135 15 M135 15 C135.27 21.84, 136.21 28.18, 135 45 M135 45 C134.07 56.62, 129.22 58.62, 120 60 M120 60 C98.32 62.29, 75.52 60.6, 15 60 M15 60 C4.76 60.37, 1.26 54.68, 0 45 M0 45 C-1 34.64, 0.01 28.44, 0 15 M0 15 C1.46 6.44, 3.64 -0.69, 15 0" stroke="#f08c00" stroke-width="2.5" fill="none" stroke-dasharray="8 10"></path></g><g transform="translate(731.7583351135254 140) rotate(0 49.24166488647461 25)"><text x="49.24166488647461" y="0" font-family="Virgil, Segoe UI Emoji" font-size="20px" fill="#f08c00" text-anchor="middle" style="white-space: pre;" direction="ltr" dominant-baseline="text-before-edge">Component</text><text x="49.24166488647461" y="25" font-family="Virgil, Segoe UI Emoji" font-size="20px" fill="#f08c00" text-anchor="middle" style="white-space: pre;" direction="ltr" dominant-baseline="text-before-edge">Template</text></g><g stroke-linecap="round"><g transform="translate(326.1602936320146 338.8280280244603) rotate(0 22.5 0)"><path d="M0.1 0.08 C7.73 0, 37.88 -0.02, 45.37 -0.1 M-0.51 -0.36 C7.11 -0.38, 37.59 0.49, 45.13 0.55" stroke="#c2255c" stroke-width="1" fill="none"></path></g></g><mask></mask><g transform="translate(383.1602936320146 324.9286119416365) rotate(0 124.48332977294922 12.5)"><text x="0" y="0" font-family="Virgil, Segoe UI Emoji" font-size="20px" fill="#1e1e1e" text-anchor="start" style="white-space: pre;" direction="ltr" dominant-baseline="text-before-edge">Binding via instances (lié)</text></g><g stroke-linecap="round" transform="translate(27 123) rotate(0 44.5 17.5)"><path d="M8.75 0 C29.06 1.73, 50.46 -1.46, 80.25 0 M8.75 0 C24.2 0.61, 40.64 -0.96, 80.25 0 M80.25 0 C86.75 -0.61, 89.43 2.33, 89 8.75 M80.25 0 C86.96 1.27, 87.01 0.99, 89 8.75 M89 8.75 C89.34 11.98, 88.02 18.33, 89 26.25 M89 8.75 C88.01 14.25, 88.16 19.55, 89 26.25 M89 26.25 C89.67 32.74, 85.5 34.03, 80.25 35 M89 26.25 C89.42 32.5, 88.34 34.81, 80.25 35 M80.25 35 C52.36 33.91, 28.38 36.61, 8.75 35 M80.25 35 C58.34 35.87, 38.03 36.11, 8.75 35 M8.75 35 C2.07 34.74, -0.09 30.76, 0 26.25 M8.75 35 C2.08 35.15, 0.48 31.77, 0 26.25 M0 26.25 C-0.56 18.88, -1.46 10.79, 0 8.75 M0 26.25 C0.44 20.02, -0.57 12, 0 8.75 M0 8.75 C0.86 4.67, 2.31 0.38, 8.75 0 M0 8.75 C-0.75 4.91, 2.36 1.17, 8.75 0" stroke="#1e1e1e" stroke-width="1" fill="none"></path></g><g transform="translate(35.81666564941406 128) rotate(0 35.68333435058594 12.5)"><text x="35.68333435058594" y="0" font-family="Virgil, Segoe UI Emoji" font-size="20px" fill="#1e1e1e" text-anchor="middle" style="white-space: pre;" direction="ltr" dominant-baseline="text-before-edge">element</text></g><g stroke-linecap="round" transform="translate(45.5 221.5) rotate(0 44.5 17.5)"><path d="M8.75 0 C38.41 1.22, 66.7 0.82, 80.25 0 M8.75 0 C27.64 -0.63, 47.32 -1.06, 80.25 0 M80.25 0 C88 -1.56, 89.65 4.89, 89 8.75 M80.25 0 C84.67 -0.26, 90.14 0.84, 89 8.75 M89 8.75 C87.84 12.51, 88.2 16.58, 89 26.25 M89 8.75 C89.67 15.5, 88.94 20.71, 89 26.25 M89 26.25 C89.34 34.03, 87.94 34.38, 80.25 35 M89 26.25 C89.92 32.01, 88.25 34.83, 80.25 35 M80.25 35 C65.89 36.13, 49.13 33.41, 8.75 35 M80.25 35 C64.43 34.55, 46.74 34.25, 8.75 35 M8.75 35 C4.71 33.59, 1.37 32.75, 0 26.25 M8.75 35 C2.47 36.78, 0.33 29.96, 0 26.25 M0 26.25 C0.78 19.18, 0.75 13.17, 0 8.75 M0 26.25 C0.76 20.36, -0.46 14.94, 0 8.75 M0 8.75 C-0.44 1.25, 1.97 0.59, 8.75 0 M0 8.75 C-0.05 2.58, 3.22 0.27, 8.75 0" stroke="#1e1e1e" stroke-width="1" fill="none"></path></g><g transform="translate(54.31666564941406 226.5) rotate(0 35.68333435058594 12.5)"><text x="35.68333435058594" y="0" font-family="Virgil, Segoe UI Emoji" font-size="20px" fill="#1e1e1e" text-anchor="middle" style="white-space: pre;" direction="ltr" dominant-baseline="text-before-edge">element</text></g><g stroke-linecap="round" transform="translate(193.5 152.5) rotate(0 44.5 17.5)"><path d="M8.75 0 C29.92 -1.68, 56.09 -0.22, 80.25 0 M8.75 0 C31.6 -0.04, 52.94 -0.53, 80.25 0 M80.25 0 C87.33 -1.1, 88.21 3.53, 89 8.75 M80.25 0 C87.44 -0.75, 88.14 3.3, 89 8.75 M89 8.75 C87.57 14.74, 87.79 17.97, 89 26.25 M89 8.75 C88.75 13.57, 88.83 18.51, 89 26.25 M89 26.25 C90.23 30.61, 87.4 35.22, 80.25 35 M89 26.25 C88.08 31.71, 85.59 35.82, 80.25 35 M80.25 35 C63.65 32.73, 52.54 33, 8.75 35 M80.25 35 C54.18 35.45, 28.39 34.88, 8.75 35 M8.75 35 C3.88 33.46, -0.75 33.25, 0 26.25 M8.75 35 C0.79 33.15, 2.12 31.71, 0 26.25 M0 26.25 C-1.27 22.88, 1.5 19.41, 0 8.75 M0 26.25 C0.03 21.2, -0.82 15.58, 0 8.75 M0 8.75 C0.53 2, 1.5 0, 8.75 0 M0 8.75 C0.86 1.31, 4.68 1.46, 8.75 0" stroke="#1e1e1e" stroke-width="1" fill="none"></path></g><g transform="translate(202.31666564941406 157.5) rotate(0 35.68333435058594 12.5)"><text x="35.68333435058594" y="0" font-family="Virgil, Segoe UI Emoji" font-size="20px" fill="#1e1e1e" text-anchor="middle" style="white-space: pre;" direction="ltr" dominant-baseline="text-before-edge">element</text></g><g stroke-linecap="round"><g transform="translate(134.7624791378595 246.36146146636702) rotate(0 250.27029530544104 -36.18430931767125)"><path d="M0 0 C60.5 -12.4, 279.6 -74.74, 363.03 -74.4 C446.45 -74.06, 477.62 -10.7, 500.54 2.04 M0 0 C60.5 -12.4, 279.6 -74.74, 363.03 -74.4 C446.45 -74.06, 477.62 -10.7, 500.54 2.04" stroke="#c2255c" stroke-width="1" fill="none"></path></g></g><mask></mask><g stroke-linecap="round"><g transform="translate(108 255) rotate(0 303.33160660894805 -32.44386886964929)"><path d="M0 0 C49 -5.81, 192.89 -24.02, 294 -34.84 C395.11 -45.65, 554.55 -59.88, 606.66 -64.89 M0 0 C49 -5.81, 192.89 -24.02, 294 -34.84 C395.11 -45.65, 554.55 -59.88, 606.66 -64.89" stroke="#c2255c" stroke-width="1" fill="none"></path></g></g><mask></mask><g transform="translate(325.05564804756034 313.9854020705935) rotate(0 24.674999237060547 12.5)"><text x="0" y="0" font-family="Virgil, Segoe UI Emoji" font-size="20px" fill="#c2255c" text-anchor="start" style="white-space: pre;" direction="ltr" dominant-baseline="text-before-edge">data</text></g><g transform="translate(675 39) rotate(0 24.28333282470703 12.5)"><text x="0" y="0" font-family="Virgil, Segoe UI Emoji" font-size="20px" fill="#1e1e1e" text-anchor="start" style="white-space: pre;" direction="ltr" dominant-baseline="text-before-edge">*.vue</text></g><g transform="translate(398 10) rotate(0 33.74166488647461 12.5)"><text x="0" y="0" font-family="Virgil, Segoe UI Emoji" font-size="20px" fill="#2f9e44" text-anchor="start" style="white-space: pre;" direction="ltr" dominant-baseline="text-before-edge">Vue JS</text></g><g transform="translate(103 46) rotate(0 36.21666717529297 12.5)"><text x="0" y="0" font-family="Virgil, Segoe UI Emoji" font-size="20px" fill="#1e1e1e" text-anchor="start" style="white-space: pre;" direction="ltr" dominant-baseline="text-before-edge">browser</text></g><g stroke-linecap="round"><g transform="translate(13 117) rotate(0 140.5 0)"><path d="M0 0 C46.83 0, 234.17 0, 281 0 M0 0 C46.83 0, 234.17 0, 281 0" stroke="#1e1e1e" stroke-width="1" fill="none"></path></g></g><mask></mask><g stroke-linecap="round" transform="translate(30 104) rotate(0 4.376634918850499 3.3218956911001385)"><path d="M8.75 3.32 C8.75 3.51, 8.73 3.71, 8.69 3.9 C8.64 4.09, 8.58 4.28, 8.49 4.46 C8.4 4.64, 8.29 4.82, 8.17 4.98 C8.04 5.15, 7.89 5.31, 7.73 5.46 C7.57 5.6, 7.38 5.74, 7.19 5.87 C7 5.99, 6.78 6.1, 6.56 6.2 C6.35 6.29, 6.11 6.38, 5.87 6.44 C5.64 6.51, 5.39 6.56, 5.14 6.59 C4.89 6.63, 4.63 6.64, 4.38 6.64 C4.12 6.64, 3.87 6.63, 3.62 6.59 C3.37 6.56, 3.12 6.51, 2.88 6.44 C2.64 6.38, 2.41 6.29, 2.19 6.2 C1.97 6.1, 1.76 5.99, 1.56 5.87 C1.37 5.74, 1.19 5.6, 1.02 5.46 C0.86 5.31, 0.71 5.15, 0.59 4.98 C0.46 4.82, 0.35 4.64, 0.26 4.46 C0.18 4.28, 0.11 4.09, 0.07 3.9 C0.02 3.71, 0 3.51, 0 3.32 C0 3.13, 0.02 2.93, 0.07 2.75 C0.11 2.56, 0.18 2.37, 0.26 2.19 C0.35 2.01, 0.46 1.83, 0.59 1.66 C0.71 1.49, 0.86 1.33, 1.02 1.19 C1.19 1.04, 1.37 0.9, 1.56 0.78 C1.76 0.65, 1.97 0.54, 2.19 0.45 C2.41 0.35, 2.64 0.27, 2.88 0.2 C3.12 0.13, 3.37 0.08, 3.62 0.05 C3.87 0.02, 4.12 0, 4.38 0 C4.63 0, 4.89 0.02, 5.14 0.05 C5.39 0.08, 5.64 0.13, 5.87 0.2 C6.11 0.27, 6.35 0.35, 6.56 0.45 C6.78 0.54, 7 0.65, 7.19 0.78 C7.38 0.9, 7.57 1.04, 7.73 1.19 C7.89 1.33, 8.04 1.49, 8.17 1.66 C8.29 1.83, 8.4 2.01, 8.49 2.19 C8.58 2.37, 8.64 2.56, 8.69 2.75 C8.73 2.93, 8.74 3.23, 8.75 3.32 C8.76 3.42, 8.76 3.23, 8.75 3.32" stroke="none" stroke-width="0" fill="#ffc9c9"></path><path d="M8.75 3.32 C8.75 3.51, 8.73 3.71, 8.69 3.9 C8.64 4.09, 8.58 4.28, 8.49 4.46 C8.4 4.64, 8.29 4.82, 8.17 4.98 C8.04 5.15, 7.89 5.31, 7.73 5.46 C7.57 5.6, 7.38 5.74, 7.19 5.87 C7 5.99, 6.78 6.1, 6.56 6.2 C6.35 6.29, 6.11 6.38, 5.87 6.44 C5.64 6.51, 5.39 6.56, 5.14 6.59 C4.89 6.63, 4.63 6.64, 4.38 6.64 C4.12 6.64, 3.87 6.63, 3.62 6.59 C3.37 6.56, 3.12 6.51, 2.88 6.44 C2.64 6.38, 2.41 6.29, 2.19 6.2 C1.97 6.1, 1.76 5.99, 1.56 5.87 C1.37 5.74, 1.19 5.6, 1.02 5.46 C0.86 5.31, 0.71 5.15, 0.59 4.98 C0.46 4.82, 0.35 4.64, 0.26 4.46 C0.18 4.28, 0.11 4.09, 0.07 3.9 C0.02 3.71, 0 3.51, 0 3.32 C0 3.13, 0.02 2.93, 0.07 2.75 C0.11 2.56, 0.18 2.37, 0.26 2.19 C0.35 2.01, 0.46 1.83, 0.59 1.66 C0.71 1.49, 0.86 1.33, 1.02 1.19 C1.19 1.04, 1.37 0.9, 1.56 0.78 C1.76 0.65, 1.97 0.54, 2.19 0.45 C2.41 0.35, 2.64 0.27, 2.88 0.2 C3.12 0.13, 3.37 0.08, 3.62 0.05 C3.87 0.02, 4.12 0, 4.38 0 C4.63 0, 4.89 0.02, 5.14 0.05 C5.39 0.08, 5.64 0.13, 5.87 0.2 C6.11 0.27, 6.35 0.35, 6.56 0.45 C6.78 0.54, 7 0.65, 7.19 0.78 C7.38 0.9, 7.57 1.04, 7.73 1.19 C7.89 1.33, 8.04 1.49, 8.17 1.66 C8.29 1.83, 8.4 2.01, 8.49 2.19 C8.58 2.37, 8.64 2.56, 8.69 2.75 C8.73 2.93, 8.74 3.23, 8.75 3.32 C8.76 3.42, 8.76 3.23, 8.75 3.32" stroke="#e03131" stroke-width="1" fill="none"></path></g><g stroke-linecap="round" transform="translate(53.20810275759709 103.77601577302107) rotate(0 4.376634918850499 3.3218956911001385)"><path d="M8.75 3.32 C8.75 3.51, 8.73 3.71, 8.69 3.9 C8.64 4.09, 8.58 4.28, 8.49 4.46 C8.4 4.64, 8.29 4.82, 8.17 4.98 C8.04 5.15, 7.89 5.31, 7.73 5.46 C7.57 5.6, 7.38 5.74, 7.19 5.87 C7 5.99, 6.78 6.1, 6.56 6.2 C6.35 6.29, 6.11 6.38, 5.87 6.44 C5.64 6.51, 5.39 6.56, 5.14 6.59 C4.89 6.63, 4.63 6.64, 4.38 6.64 C4.12 6.64, 3.87 6.63, 3.62 6.59 C3.37 6.56, 3.12 6.51, 2.88 6.44 C2.64 6.38, 2.41 6.29, 2.19 6.2 C1.97 6.1, 1.76 5.99, 1.56 5.87 C1.37 5.74, 1.19 5.6, 1.02 5.46 C0.86 5.31, 0.71 5.15, 0.59 4.98 C0.46 4.82, 0.35 4.64, 0.26 4.46 C0.18 4.28, 0.11 4.09, 0.07 3.9 C0.02 3.71, 0 3.51, 0 3.32 C0 3.13, 0.02 2.93, 0.07 2.75 C0.11 2.56, 0.18 2.37, 0.26 2.19 C0.35 2.01, 0.46 1.83, 0.59 1.66 C0.71 1.49, 0.86 1.33, 1.02 1.19 C1.19 1.04, 1.37 0.9, 1.56 0.78 C1.76 0.65, 1.97 0.54, 2.19 0.45 C2.41 0.35, 2.64 0.27, 2.88 0.2 C3.12 0.13, 3.37 0.08, 3.62 0.05 C3.87 0.02, 4.12 0, 4.38 0 C4.63 0, 4.89 0.02, 5.14 0.05 C5.39 0.08, 5.64 0.13, 5.87 0.2 C6.11 0.27, 6.35 0.35, 6.56 0.45 C6.78 0.54, 7 0.65, 7.19 0.78 C7.38 0.9, 7.57 1.04, 7.73 1.19 C7.89 1.33, 8.04 1.49, 8.17 1.66 C8.29 1.83, 8.4 2.01, 8.49 2.19 C8.58 2.37, 8.64 2.56, 8.69 2.75 C8.73 2.93, 8.74 3.23, 8.75 3.32 C8.76 3.42, 8.76 3.23, 8.75 3.32" stroke="none" stroke-width="0" fill="#b2f2bb"></path><path d="M8.75 3.32 C8.75 3.51, 8.73 3.71, 8.69 3.9 C8.64 4.09, 8.58 4.28, 8.49 4.46 C8.4 4.64, 8.29 4.82, 8.17 4.98 C8.04 5.15, 7.89 5.31, 7.73 5.46 C7.57 5.6, 7.38 5.74, 7.19 5.87 C7 5.99, 6.78 6.1, 6.56 6.2 C6.35 6.29, 6.11 6.38, 5.87 6.44 C5.64 6.51, 5.39 6.56, 5.14 6.59 C4.89 6.63, 4.63 6.64, 4.38 6.64 C4.12 6.64, 3.87 6.63, 3.62 6.59 C3.37 6.56, 3.12 6.51, 2.88 6.44 C2.64 6.38, 2.41 6.29, 2.19 6.2 C1.97 6.1, 1.76 5.99, 1.56 5.87 C1.37 5.74, 1.19 5.6, 1.02 5.46 C0.86 5.31, 0.71 5.15, 0.59 4.98 C0.46 4.82, 0.35 4.64, 0.26 4.46 C0.18 4.28, 0.11 4.09, 0.07 3.9 C0.02 3.71, 0 3.51, 0 3.32 C0 3.13, 0.02 2.93, 0.07 2.75 C0.11 2.56, 0.18 2.37, 0.26 2.19 C0.35 2.01, 0.46 1.83, 0.59 1.66 C0.71 1.49, 0.86 1.33, 1.02 1.19 C1.19 1.04, 1.37 0.9, 1.56 0.78 C1.76 0.65, 1.97 0.54, 2.19 0.45 C2.41 0.35, 2.64 0.27, 2.88 0.2 C3.12 0.13, 3.37 0.08, 3.62 0.05 C3.87 0.02, 4.12 0, 4.38 0 C4.63 0, 4.89 0.02, 5.14 0.05 C5.39 0.08, 5.64 0.13, 5.87 0.2 C6.11 0.27, 6.35 0.35, 6.56 0.45 C6.78 0.54, 7 0.65, 7.19 0.78 C7.38 0.9, 7.57 1.04, 7.73 1.19 C7.89 1.33, 8.04 1.49, 8.17 1.66 C8.29 1.83, 8.4 2.01, 8.49 2.19 C8.58 2.37, 8.64 2.56, 8.69 2.75 C8.73 2.93, 8.74 3.23, 8.75 3.32 C8.76 3.42, 8.76 3.23, 8.75 3.32" stroke="#2f9e44" stroke-width="1" fill="none"></path></g><g stroke-linecap="round" transform="translate(41.63132267910623 103.77601577302107) rotate(0 4.376634918850499 3.3218956911001385)"><path d="M8.75 3.32 C8.75 3.51, 8.73 3.71, 8.69 3.9 C8.64 4.09, 8.58 4.28, 8.49 4.46 C8.4 4.64, 8.29 4.82, 8.17 4.98 C8.04 5.15, 7.89 5.31, 7.73 5.46 C7.57 5.6, 7.38 5.74, 7.19 5.87 C7 5.99, 6.78 6.1, 6.56 6.2 C6.35 6.29, 6.11 6.38, 5.87 6.44 C5.64 6.51, 5.39 6.56, 5.14 6.59 C4.89 6.63, 4.63 6.64, 4.38 6.64 C4.12 6.64, 3.87 6.63, 3.62 6.59 C3.37 6.56, 3.12 6.51, 2.88 6.44 C2.64 6.38, 2.41 6.29, 2.19 6.2 C1.97 6.1, 1.76 5.99, 1.56 5.87 C1.37 5.74, 1.19 5.6, 1.02 5.46 C0.86 5.31, 0.71 5.15, 0.59 4.98 C0.46 4.82, 0.35 4.64, 0.26 4.46 C0.18 4.28, 0.11 4.09, 0.07 3.9 C0.02 3.71, 0 3.51, 0 3.32 C0 3.13, 0.02 2.93, 0.07 2.75 C0.11 2.56, 0.18 2.37, 0.26 2.19 C0.35 2.01, 0.46 1.83, 0.59 1.66 C0.71 1.49, 0.86 1.33, 1.02 1.19 C1.19 1.04, 1.37 0.9, 1.56 0.78 C1.76 0.65, 1.97 0.54, 2.19 0.45 C2.41 0.35, 2.64 0.27, 2.88 0.2 C3.12 0.13, 3.37 0.08, 3.62 0.05 C3.87 0.02, 4.12 0, 4.38 0 C4.63 0, 4.89 0.02, 5.14 0.05 C5.39 0.08, 5.64 0.13, 5.87 0.2 C6.11 0.27, 6.35 0.35, 6.56 0.45 C6.78 0.54, 7 0.65, 7.19 0.78 C7.38 0.9, 7.57 1.04, 7.73 1.19 C7.89 1.33, 8.04 1.49, 8.17 1.66 C8.29 1.83, 8.4 2.01, 8.49 2.19 C8.58 2.37, 8.64 2.56, 8.69 2.75 C8.73 2.93, 8.74 3.23, 8.75 3.32 C8.76 3.42, 8.76 3.23, 8.75 3.32" stroke="none" stroke-width="0" fill="#ffec99"></path><path d="M8.75 3.32 C8.75 3.51, 8.73 3.71, 8.69 3.9 C8.64 4.09, 8.58 4.28, 8.49 4.46 C8.4 4.64, 8.29 4.82, 8.17 4.98 C8.04 5.15, 7.89 5.31, 7.73 5.46 C7.57 5.6, 7.38 5.74, 7.19 5.87 C7 5.99, 6.78 6.1, 6.56 6.2 C6.35 6.29, 6.11 6.38, 5.87 6.44 C5.64 6.51, 5.39 6.56, 5.14 6.59 C4.89 6.63, 4.63 6.64, 4.38 6.64 C4.12 6.64, 3.87 6.63, 3.62 6.59 C3.37 6.56, 3.12 6.51, 2.88 6.44 C2.64 6.38, 2.41 6.29, 2.19 6.2 C1.97 6.1, 1.76 5.99, 1.56 5.87 C1.37 5.74, 1.19 5.6, 1.02 5.46 C0.86 5.31, 0.71 5.15, 0.59 4.98 C0.46 4.82, 0.35 4.64, 0.26 4.46 C0.18 4.28, 0.11 4.09, 0.07 3.9 C0.02 3.71, 0 3.51, 0 3.32 C0 3.13, 0.02 2.93, 0.07 2.75 C0.11 2.56, 0.18 2.37, 0.26 2.19 C0.35 2.01, 0.46 1.83, 0.59 1.66 C0.71 1.49, 0.86 1.33, 1.02 1.19 C1.19 1.04, 1.37 0.9, 1.56 0.78 C1.76 0.65, 1.97 0.54, 2.19 0.45 C2.41 0.35, 2.64 0.27, 2.88 0.2 C3.12 0.13, 3.37 0.08, 3.62 0.05 C3.87 0.02, 4.12 0, 4.38 0 C4.63 0, 4.89 0.02, 5.14 0.05 C5.39 0.08, 5.64 0.13, 5.87 0.2 C6.11 0.27, 6.35 0.35, 6.56 0.45 C6.78 0.54, 7 0.65, 7.19 0.78 C7.38 0.9, 7.57 1.04, 7.73 1.19 C7.89 1.33, 8.04 1.49, 8.17 1.66 C8.29 1.83, 8.4 2.01, 8.49 2.19 C8.58 2.37, 8.64 2.56, 8.69 2.75 C8.73 2.93, 8.74 3.23, 8.75 3.32 C8.76 3.42, 8.76 3.23, 8.75 3.32" stroke="#f08c00" stroke-width="1" fill="none"></path></g><g stroke-linecap="round"><g transform="translate(534.1005839171762 185.28780036285798) rotate(0 -28.321953205182126 -0.4792969651476824)"><path d="M0 0 C-9.44 -0.16, -47.2 -0.8, -56.64 -0.96 M0 0 C-9.44 -0.16, -47.2 -0.8, -56.64 -0.96" stroke="#1e1e1e" stroke-width="1" fill="none"></path></g><g transform="translate(534.1005839171762 185.28780036285798) rotate(0 -28.321953205182126 -0.4792969651476824)"><path d="M-56.64 -0.96 L-42.94 -7.07 L-43.16 5.61 L-56.64 -0.96" stroke="none" stroke-width="0" fill="#1e1e1e" fill-rule="evenodd"></path><path d="M-56.64 -0.96 C-51.25 -3.36, -45.85 -5.77, -42.94 -7.07 M-56.64 -0.96 C-51.63 -3.19, -46.62 -5.43, -42.94 -7.07 M-42.94 -7.07 C-43 -3.83, -43.05 -0.6, -43.16 5.61 M-42.94 -7.07 C-42.99 -4.27, -43.04 -1.48, -43.16 5.61 M-43.16 5.61 C-46.86 3.81, -50.57 2, -56.64 -0.96 M-43.16 5.61 C-46.6 3.93, -50.04 2.26, -56.64 -0.96 M-56.64 -0.96 C-56.64 -0.96, -56.64 -0.96, -56.64 -0.96 M-56.64 -0.96 C-56.64 -0.96, -56.64 -0.96, -56.64 -0.96" stroke="#1e1e1e" stroke-width="1" fill="none"></path></g></g><mask></mask><g stroke-linecap="round"><g transform="translate(353.3798873317662 192.56300300798927) rotate(0 -28.16564801810091 -0.8678048074023366)"><path d="M0 0 C-9.39 -0.29, -46.94 -1.45, -56.33 -1.74 M0 0 C-9.39 -0.29, -46.94 -1.45, -56.33 -1.74" stroke="#1e1e1e" stroke-width="1" fill="none"></path></g><g transform="translate(353.3798873317662 192.56300300798927) rotate(0 -28.16564801810091 -0.8678048074023366)"><path d="M-56.33 -1.74 L-42.55 -7.65 L-42.94 5.02 L-56.33 -1.74" stroke="none" stroke-width="0" fill="#1e1e1e" fill-rule="evenodd"></path><path d="M-56.33 -1.74 C-51.67 -3.74, -47.01 -5.74, -42.55 -7.65 M-56.33 -1.74 C-51.46 -3.83, -46.58 -5.92, -42.55 -7.65 M-42.55 -7.65 C-42.68 -3.29, -42.82 1.07, -42.94 5.02 M-42.55 -7.65 C-42.7 -2.74, -42.85 2.17, -42.94 5.02 M-42.94 5.02 C-45.65 3.65, -48.36 2.28, -56.33 -1.74 M-42.94 5.02 C-46.14 3.41, -49.33 1.79, -56.33 -1.74 M-56.33 -1.74 C-56.33 -1.74, -56.33 -1.74, -56.33 -1.74 M-56.33 -1.74 C-56.33 -1.74, -56.33 -1.74, -56.33 -1.74" stroke="#1e1e1e" stroke-width="1" fill="none"></path></g></g><mask></mask><g stroke-linecap="round"><g transform="translate(115.0346253834739 134.00896361529215) rotate(0 247.33942277652966 49.91759259671778)"><path d="M0 0 C36.88 0.6, 156.5 -13.04, 221.26 3.6 C286.01 20.24, 342.98 91.29, 388.55 99.84 C434.12 108.38, 476.99 62.36, 494.68 54.86 M0 0 C36.88 0.6, 156.5 -13.04, 221.26 3.6 C286.01 20.24, 342.98 91.29, 388.55 99.84 C434.12 108.38, 476.99 62.36, 494.68 54.86" stroke="#c2255c" stroke-width="1" fill="none"></path></g></g><mask></mask><g stroke-linecap="round" transform="translate(356 152.08306640188857) rotate(0 59.15671504752697 39.56488988799455)"><path d="M19.78 0 C40.36 0, 60.94 0, 98.53 0 C111.72 0, 118.31 6.59, 118.31 19.78 C118.31 32.89, 118.31 46, 118.31 59.35 C118.31 72.54, 111.72 79.13, 98.53 79.13 C80.09 79.13, 61.65 79.13, 19.78 79.13 C6.59 79.13, 0 72.54, 0 59.35 C0 48.85, 0 38.36, 0 19.78 C0 6.59, 6.59 0, 19.78 0" stroke="none" stroke-width="0" fill="#ffd43b"></path><path d="M19.78 0 C47.49 0, 75.2 0, 98.53 0 M19.78 0 C49.75 0, 79.72 0, 98.53 0 M98.53 0 C111.72 0, 118.31 6.59, 118.31 19.78 M98.53 0 C111.72 0, 118.31 6.59, 118.31 19.78 M118.31 19.78 C118.31 32.39, 118.31 45, 118.31 59.35 M118.31 19.78 C118.31 28.82, 118.31 37.87, 118.31 59.35 M118.31 59.35 C118.31 72.54, 111.72 79.13, 98.53 79.13 M118.31 59.35 C118.31 72.54, 111.72 79.13, 98.53 79.13 M98.53 79.13 C77.4 79.13, 56.28 79.13, 19.78 79.13 M98.53 79.13 C80.5 79.13, 62.47 79.13, 19.78 79.13 M19.78 79.13 C6.59 79.13, 0 72.54, 0 59.35 M19.78 79.13 C6.59 79.13, 0 72.54, 0 59.35 M0 59.35 C0 50.47, 0 41.58, 0 19.78 M0 59.35 C0 49.93, 0 40.51, 0 19.78 M0 19.78 C0 6.59, 6.59 0, 19.78 0 M0 19.78 C0 6.59, 6.59 0, 19.78 0" stroke=" #ffc300 " stroke-width="1" fill="none"></path></g><g transform="translate(362.0733829857594 179.1479562898831) rotate(0 53.08333206176758 12.5)"><text x="53.08333206176758" y="0" font-family="Virgil, Segoe UI Emoji" font-size="20px" fill="#1e1e1e" text-anchor="middle" style="white-space: pre;" direction="ltr" dominant-baseline="text-before-edge">JavaScript</text></g><g transform="translate(480.7062060919185 195.26108240683925) rotate(0 24.674999237060547 12.5)"><text x="0" y="0" font-family="Virgil, Segoe UI Emoji" font-size="20px" fill="#c2255c" text-anchor="start" style="white-space: pre;" direction="ltr" dominant-baseline="text-before-edge">data</text></g></svg>